<svg version="1.1" xmlns="http://www.w3.org/2000/svg" xmlns:xlink="http://www.w3.org/1999/xlink" width="149.8742" height="133.71455" viewBox="0,0,149.8742,133.71455"><g transform="translate(-250.0425,-109.42459)"><g data-paper-data="{&quot;isPaintingLayer&quot;:true}" fill-rule="nonzero" stroke="none" stroke-linecap="butt" stroke-linejoin="miter" stroke-miterlimit="10" stroke-dasharray="" stroke-dashoffset="0" style="mix-blend-mode: normal"><path d="M294.22471,234.46637c2.14476,2.10538 4.54678,3.7417 7.21708,4.81016c-5.77898,-0.40513 -11.53275,-1.17659 -17.20678,-2.59645l-0.57203,-0.19431c-10.12974,-8.07693 -20.87921,-15.04104 -27.70801,-26.36511l-0.08289,-0.16957c-0.018,-3.4592 -0.25467,-7.03791 -0.0064,-10.47564c0.49159,-6.80681 3.31237,-13.17898 4.94951,-19.71732c0.67036,-2.67726 0.78041,-5.53435 1.61754,-8.17731c0.45401,-1.43336 1.36496,-2.38024 2.16546,-3.48841c0.2013,0.01095 0.4271,-0.01435 0.67969,-0.08865c1.67889,-0.49379 1.18555,-2.175 1.18555,-2.175c-0.06716,-0.22834 -0.13442,-0.45731 -0.20203,-0.68571l0.35738,-0.58804c0,0 0.90092,-1.50268 -0.59969,-2.40305c-0.26427,-0.15857 -0.50991,-0.24272 -0.73531,-0.27366c-3.39747,-11.20173 -7.13705,-22.49219 -9.43785,-33.91048c-0.70688,-3.50806 -0.16249,-7.14618 -0.6699,-10.70132c-0.14632,-0.51341 -0.59393,-2.31213 -1.03532,-3.42381c2.30725,1.96094 6.87663,3.0702 9.06022,3.983c7.41261,3.09867 14.91976,7.52982 21.64743,11.93018l0.63776,0.68395c0.00213,0.00251 0.00325,0.00379 0.00325,0.00379c1.21672,1.3898 2.44044,2.77707 3.74614,4.08362c0.33599,0.33621 0.61229,0.75126 0.97279,1.05552l-0.19865,0.11882c-0.03249,-0.00284 -0.06488,-0.00586 -0.09731,-0.00901l-0.00715,-0.04281l-1.97002,0.32759c-0.84353,0.1253 -1.48881,0.85121 -1.48881,1.7296c0,0.9665 0.72454,1.66923 1.69104,1.66923c0.08829,0 0.17526,-0.00667 0.26004,-0.01929l3.44363,-0.46069l-0.00077,-0.00574c0.01007,0.00054 0.02015,0.00105 0.03022,0.00156c3.83478,0.19395 8.39468,-1.93999 12.22709,-2.54568c3.74644,-0.5921 7.39007,-0.44507 11.14864,-0.6481c4.50499,-0.24336 9.13494,-0.87449 13.58167,0.23429c1.86622,0.46533 3.59666,1.60013 5.37788,2.31429l1.38838,0.55553c0.40153,0.27629 0.81692,0.30063 1.16205,0.23544c0.35047,-0.02679 0.74528,-0.15718 1.0613,-0.52899c4.06104,-3.05406 8.13319,-6.27497 12.06294,-9.46716c1.75498,-1.4256 3.92184,-3.04075 5.59338,-4.60703c0.24102,-0.22584 0.27771,-0.79795 0.60766,-0.78271c0.19637,0.00907 0.03439,4.95575 0.03439,4.97683c0,5.99866 0.00804,12.32726 0.00804,18.33774c-0.10587,0.4451 0.01137,0.83106 0.17787,1.12485c0.13534,0.30995 0.37461,0.63582 0.79543,0.81803c2.70226,2.01483 5.51418,3.95785 7.90557,6.33548c5.50647,5.47481 9.22061,13.47602 10.96193,21.2753c-7.75963,-0.32302 -15.20126,1.87175 -22.44055,4.84607c-0.00605,-0.37529 -0.1771,-0.75039 -0.34739,-1.09666c-0.57717,-1.17363 -6.82661,-0.6812 -7.96038,-0.68118c-6.89607,0.00013 -13.76204,0.67987 -20.66985,0.67987c0,0 -1.20208,0.00745 -1.61545,0.99919c-0.9253,-0.76469 -2.02947,-0.02557 -2.02947,-0.02557l-1.28106,3.37242c0.32314,0.31297 0.68057,0.56482 1.05158,0.78247c-9.29733,2.33285 -17.62148,7.28546 -26.7626,10.30998l-1.00048,0.33279c0,0 -0.26637,0.08857 -0.55006,0.30158c-0.54222,-0.20572 -1.03853,-0.04367 -1.3719,0.14191c-5.87452,-2.87387 -11.76541,-5.88001 -16.78515,-9.84499c-2.44229,-1.92912 -7.00859,-6.68107 -2.28451,-9.41452c1.01999,-0.5902 2.35413,-0.1427 3.53256,-0.13949c0,0 1.75002,-0.00228 1.75002,-1.75228c0,-1.75 -1.74989,-1.75213 -1.74989,-1.75213c-1.26146,0.00304 -3.8822,-0.14104 -5.03431,0.53376c-4.22776,2.47625 -4.9563,8.72873 -1.85129,12.36114c2.35991,2.76075 6.06771,4.68794 9.14966,6.3786c3.6503,2.00244 7.29459,3.97419 10.95613,5.94494c-4.46017,4.95155 -8.56266,11.45895 -7.17495,18.23219c1.48866,7.26595 8.32513,12.15114 12.72929,17.43613z" data-paper-data="{&quot;noHover&quot;:false,&quot;origItem&quot;:[&quot;Path&quot;,{&quot;applyMatrix&quot;:true,&quot;segments&quot;:[[[294.20776,234.51343],[0,0],[-4.40416,-5.28499]],[[281.46348,217.06874],[1.48866,7.26595],[-1.38771,-6.77324]],[[288.63212,198.83029],[-4.46017,4.95155],[-3.66154,-1.97075]],[[277.66839,192.87312],[3.6503,2.00244],[-3.08195,-1.69066]],[[268.51565,186.48495],[2.35991,2.76075],[-3.10501,-3.63241]],[[270.36591,174.11064],[-4.22776,2.47625],[1.15211,-0.6748]],[[275.50001,173.58335],[-1.26146,0.00304],[0,0]],[[277.25001,175.33335],[0,-1.75],[0,1.75]],[[275.50001,177.08335],[0,0],[-1.17843,-0.00321]],[[271.96745,177.22273],[1.01999,-0.5902],[-4.72408,2.73345]],[[274.25051,186.62604],[-2.44229,-1.92912],[5.01974,3.96498]],[[291.02562,196.45112],[-5.87452,-2.87387],[0.33337,-0.18558]],[[292.3967,196.30824],[-0.54222,-0.20572],[0.28369,-0.21301]],[292.94661,196.00649],[[293.94661,195.67316],[0,0],[9.14112,-3.02452]],[[320.64532,185.35457],[-9.29733,2.33285],[-0.37101,-0.21765]],[[319.5959,184.5708],[0.32314,0.31297],[0,0]],[320.86261,181.21061],[[322.8882,181.24177],[-0.9253,-0.76469],[0.41337,-0.99174]],[[324.5,180.25003],[0,0],[6.90781,0]],[[345.16667,179.58336],[-6.89607,0.00013],[1.13377,-0.00002]],[[353.22656,180.27439],[-0.57717,-1.17363],[0.17029,0.34627]],[[353.47457,181.35999],[-0.00605,-0.37529],[7.23929,-2.97432]],[[375.91473,176.52015],[-7.75963,-0.32302],[-1.74132,-7.79928]],[[364.95681,155.26444],[5.50647,5.47481],[-2.39139,-2.37763]],[[357.05545,148.93681],[2.70226,2.01483],[-0.42082,-0.18221]],[[356.26064,148.11971],[0.13534,0.30995],[-0.1665,-0.29379]],[[356.08335,146.99569],[-0.10587,0.4451],[0,-6.01048]],[[356.08335,128.66669],[0,5.99866],[0,-0.02108]],[[356.05085,123.6914],[0.19637,0.00907],[-0.32995,-0.01524]],[[355.44319,124.47411],[0.24102,-0.22584],[-1.67154,1.56628]],[[349.85089,129.08196],[1.75498,-1.4256],[-3.92975,3.19219]],[[337.79183,138.5517],[4.06104,-3.05406],[-0.31602,0.37181]],[[336.73117,139.08106],[0.35047,-0.02679],[-0.34513,0.06519]],[[335.57026,138.84626],[0.40153,0.27629],[0,0]],[[334.18342,138.29153],[0,0],[-1.78122,-0.71416]],[[328.81184,135.97987],[1.86622,0.46533],[-4.44673,-1.10878]],[[315.24599,135.74823],[4.50499,-0.24336],[-3.75857,0.20303]],[[304.11073,136.39457],[3.74644,-0.5921],[-3.83241,0.60569]],[[291.89671,138.93459],[3.83478,0.19395],[-0.01007,-0.00051]],[[291.86651,138.93302],[0.01007,0.00054],[0,0]],[291.86728,138.93876],[[288.42654,139.39753],[0,0],[-0.08478,0.01262]],[[288.1667,139.41668],[0.08829,0],[-0.9665,0]],[[286.4167,137.66668],[0,0.9665],[0,-0.87839]],[[287.90738,135.93577],[-0.84353,0.1253],[0,0]],[289.879,135.60716],[[289.88614,135.64998],[0,0],[0.03243,0.00315]],[[289.98352,135.65895],[-0.03249,-0.00284],[0,0]],[[290.23422,135.62552],[0,0],[-0.3605,-0.30426]],[[289.26168,134.56985],[0.33599,0.33621],[-1.3057,-1.30655]],[[285.51636,130.48572],[1.21672,1.3898],[0,0]],[[285.51311,130.48193],[0.00213,0.00251],[0,0]],[[284.87548,129.7979],[0,0],[-6.72767,-4.40036]],[[263.23403,117.86319],[7.41261,3.09867],[-2.18359,-0.9128]],[[254.17555,113.87857],[2.30725,1.96094],[0.44139,1.11168]],[[255.21156,117.30169],[-0.14632,-0.51341],[0.50741,3.55514]],[[255.88458,127.99955],[-0.70688,-3.50806],[2.3008,11.41829]],[[265.33174,161.89245],[-3.39747,-11.20173],[0.2254,0.03094]],[[266.06707,162.16606],[-0.26427,-0.15857],[1.50061,0.90037]],[266.66732,164.56704],[[266.31009,165.15444],[0,0],[0.06761,0.2284]],[[266.51226,165.83954],[-0.06716,-0.22834],[0,0]],[[265.32716,168.01223],[1.67889,-0.49379],[-0.25259,0.0743]],[[264.6475,168.10068],[0.2013,0.01095],[-0.8005,1.10817]],[[262.48251,171.58552],[0.45401,-1.43336],[-0.83713,2.64296]],[[260.8651,179.75518],[0.67036,-2.67726],[-1.63714,6.53834]],[[255.9123,199.45739],[0.49159,-6.80681],[-0.24827,3.43773]],[[255.91562,209.92651],[-0.018,-3.4592],[0,0]],[[255.99844,210.09596],[0,0],[6.8288,11.32407]],[[283.68617,236.44147],[-10.12974,-8.07693],[0,0]],[[284.25781,236.63558],[0,0],[5.67403,1.41986]],[[301.45239,239.22766],[-5.77898,-0.40513],[-2.6703,-1.06846]],[[294.2078,234.51342],[2.14476,2.10538],[0,0]]],&quot;closed&quot;:true,&quot;fillColor&quot;:[0,0,0],&quot;strokeWidth&quot;:0.5}]}" fill="#ff7f00" stroke-width="0.25"/><path d="M279.08333,169.33333c0,-0.9665 0.7835,-1.75 1.75,-1.75c0.9665,0 1.75,0.7835 1.75,1.75c0,0.9665 -0.7835,1.75 -1.75,1.75c-0.9665,0 -1.75,-0.7835 -1.75,-1.75z" fill="#000000" stroke-width="0.5"/><path d="M363.75,161c0,-0.9665 0.7835,-1.75 1.75,-1.75c0.9665,0 1.75,0.7835 1.75,1.75c0,0.9665 -0.7835,1.75 -1.75,1.75c-0.9665,0 -1.75,-0.7835 -1.75,-1.75z" fill="#000000" stroke-width="0.5"/><path d="M380.83333,186.08333l-0.00202,-0.01513c-0.07165,-0.0242 -0.14343,-0.0484 -0.21536,-0.07261c-1.04955,0.23216 -2.21583,1.01387 -3.09705,0.45352c-0.88082,-0.56009 -0.44761,-2.03997 -0.72209,-3.04705c-0.27738,-1.01772 -1.29832,-2.03458 -0.93258,-3.02398c0.05093,-0.13776 0.10346,-0.26601 0.15748,-0.38528c-7.91254,-0.42856 -15.54722,2.15512 -22.83236,5.28237c0,0 -0.27886,0.11951 -0.65412,0.1429c-0.76979,3.7813 -3.03893,7.24755 -4.3903,10.84581c-0.36266,0.96565 -1.0631,4.52425 -1.85697,5.07969c-1.06168,0.74281 -2.54905,0.46696 -3.82358,0.70044c-5.03645,-3.03082 -10.3252,-6.70007 -14.69998,-10.65909c-1.07736,-0.97497 -1.80715,-2.28245 -2.75494,-3.3829c-0.13341,0.04278 -0.22177,0.05751 -0.22177,0.05751c-10.33136,1.72189 -19.23813,7.28978 -29.04746,10.69938c1.40923,0.69775 2.80437,1.40259 4.17305,2.12688c0.84715,0.43499 1.69022,0.87919 2.52311,1.34133c0.18615,0.00316 0.39135,0.03748 0.61701,0.1127c0.41399,0.138 0.69034,0.34482 0.87194,0.57756c0.22287,-0.01809 0.42988,0.00703 0.59181,0.04083c0.16105,0.03247 0.35967,0.09033 0.55616,0.19343c7.11471,3.06891 13.7687,6.77705 21.21557,9.098c10.22358,3.18637 21.27812,3.00038 31.87779,3.00038c11.91402,0 24.33503,0.02472 35.85257,-3.266l0.04205,-0.00855c1.32872,-4.22344 2.34638,-8.57437 2.35537,-12.97545c0.00304,-1.48943 -0.09746,-3.64853 -1.2286,-4.84185c-4.1487,-4.37673 -8.81235,-6.21612 -14.31563,-8.07605c-0.02525,0.00123 -0.0391,0.00123 -0.0391,0.00123zM380.25517,176.96827l0.11696,0.08199l0.01459,-0.04378l1.96172,0.65391c0.71509,0.21992 1.23488,0.88574 1.23488,1.67296c0,0.76462 -0.49037,1.41471 -1.17379,1.65292l-1.98071,0.74277l0.16175,0.56042c4.88823,1.55345 10.41819,2.79316 14.14685,6.47312c0.47074,0.46459 0.56178,1.22842 1.02909,1.69646c0.5815,0.5824 1.50685,0.76051 2.04541,1.38282c1.69196,1.9551 2.10056,4.71728 2.10473,7.15815c0.00771,4.50843 -0.96507,8.96811 -2.30044,13.30069c0.11672,0.18137 0.2101,0.40764 0.26646,0.68944c0.26278,1.31388 -0.68163,1.82298 -1.13868,1.98943c-0.31883,0.93439 -0.64885,1.86193 -0.98361,2.78181c-1.71067,2.39927 -2.53184,5.0508 -4.10064,7.48478c-3.09116,4.79593 -7.598,7.9707 -13.24559,8.81959l-0.28644,0.00868c-2.39606,0.74589 -4.81357,1.53451 -7.24699,2.32338c-0.58323,1.54916 -1.30365,3.06043 -2.19578,3.89c-1.612,1.49894 -4.42589,1.18748 -6.27887,1.26736c-2.56583,0.11061 -4.94955,-0.10436 -7.23907,-0.52341c-2.17851,0.5254 -4.3602,0.98095 -6.54132,1.33773c-5.42004,0.88658 -10.99079,0.71385 -16.45902,0.71385c0,0 -2.33334,0 -2.33335,0c-15.58914,-0.00763 -31.22136,0.74477 -46.42443,-3.05225l-0.97732,-0.32107c-0.04883,-0.01408 -0.09584,-0.02969 -0.14078,-0.04624l-0.01086,-0.00357c0,0 -0.11774,-0.03924 -0.28006,-0.12819c-0.16285,-0.08795 -0.25977,-0.16548 -0.25977,-0.16548c-0.00339,-0.00271 -0.00678,-0.00543 -0.01017,-0.00814c-0.03275,-0.0246 -0.06573,-0.05084 -0.09856,-0.0788c-10.50448,-8.39333 -21.53726,-15.62571 -28.62979,-27.37554l-0.2597,-0.51144c-0.14843,-0.22333 -0.22911,-0.46344 -0.27298,-0.65849c-0.04673,-0.18893 -0.08132,-0.43165 -0.0528,-0.6899c-0.01336,-3.57739 -0.26423,-7.27763 0.00495,-10.83494c0.53116,-7.01937 3.36373,-13.55205 5.0472,-20.29779c0.69403,-2.78101 0.77267,-5.77122 1.71592,-8.497c0.83965,-2.4264 2.56884,-3.35039 3.34919,-5.67834c-3.57038,-11.91299 -7.66897,-23.91075 -10.08459,-36.06904c-0.69878,-3.51711 -0.15362,-7.09262 -0.66031,-10.63547c-0.46637,-1.62735 -2.77963,-6.52553 -1.20339,-7.92484c2.69327,-2.39095 8.41856,2.19357 10.77202,3.17629c8.77179,3.66278 17.47288,8.37886 25.43412,13.58567l1.27954,1.22713c0,0 0.01479,0.01479 0.03953,0.04276c0.02627,0.02654 0.04005,0.04229 0.04005,0.04229c1.35779,1.5526 3.82279,3.5453 4.98696,5.3186c0.26269,0.40014 0.65213,0.81666 1.00284,1.24209c2.0335,-0.59472 4.31969,-0.76621 6.39451,-1.13263c4.95511,-0.87509 9.55329,-1.08272 14.55271,-1.35721c4.89943,-0.269 9.8197,-0.8574 14.65457,0.35389c2.00923,0.50338 3.82676,1.67226 5.74133,2.43614l0.74812,0.29925c5.28962,-4.05235 10.18486,-8.65077 15.6029,-12.44455c1.24146,-0.86929 3.35874,-3.16831 5.11488,-2.5879c3.03803,1.00408 2.60264,3.85297 2.63416,6.02471c0.09729,6.70398 0.00513,13.41634 0.0002,20.12158c2.67852,1.98361 5.44131,3.92147 7.79299,6.28067c6.20769,6.22754 10.45696,15.32025 12.20324,24.12707c0.22486,0.03292 0.45,0.06811 0.67541,0.10562zM309.25,239c0,0.21927 -0.02747,0.41107 -0.07554,0.57884c6.86933,0.16673 13.77227,0.0077 20.65887,0.0045h2.33333c5.11918,0 10.34265,0.17659 15.42589,-0.59419c-3.20628,-1.06352 -6.42484,-2.26845 -9.93191,-3.23291c-6.60943,-1.82329 -12.97345,-3.39274 -19.78497,-4.31281c-6.14761,-0.83039 -12.55023,-0.72109 -18.6385,-1.71327c-1.09991,-0.17925 -3.38608,-0.41933 -5.42921,-0.80041c1.09695,1.12317 2.12887,2.19703 2.98427,3.2235c2.84686,2.92554 6.65653,4.46464 10.66213,5.12057l0.04564,-0.02381c0,0 1.75,0 1.75,1.75zM294.20776,234.51343c-4.40416,-5.28499 -11.25562,-10.17874 -12.74428,-17.44469c-1.38771,-6.77324 2.70847,-13.2869 7.16864,-18.23845c-3.66154,-1.97075 -7.31343,-3.95473 -10.96373,-5.95717c-3.08195,-1.69066 -6.79283,-3.62742 -9.15274,-6.38817c-3.10501,-3.63241 -2.3775,-9.89806 1.85026,-12.37431c1.15211,-0.6748 3.87264,-0.52425 5.1341,-0.52729c0,0 1.75,0 1.75,1.75c0,1.75 -1.75,1.75 -1.75,1.75c-1.17843,-0.00321 -2.51257,-0.45082 -3.53256,0.13938c-4.72408,2.73345 -0.15923,7.47419 2.28306,9.40331c5.01974,3.96498 10.90059,6.95121 16.77511,9.82508c0.33337,-0.18558 0.82886,-0.3486 1.37108,-0.14288c0.28369,-0.21301 0.54991,-0.30175 0.54991,-0.30175l1,-0.33333c9.14112,-3.02452 17.40138,-7.98574 26.69871,-10.31859c-0.37101,-0.21765 -0.72628,-0.4708 -1.04942,-0.78377l1.26671,-3.36019c0,0 1.10029,-0.73353 2.02559,0.03116c0.41337,-0.99174 1.6118,-0.99174 1.6118,-0.99174c6.90781,0 13.7706,-0.66654 20.66667,-0.66667c1.13377,-0.00002 7.48272,-0.4826 8.05989,0.69103c0.17029,0.34627 0.24196,0.71031 0.24801,1.0856c7.23929,-2.97432 14.68053,-5.16286 22.44016,-4.83984c-1.74132,-7.79928 -5.45145,-15.7809 -10.95792,-21.25571c-2.39139,-2.37763 -5.1991,-4.3128 -7.90136,-6.32763c-0.42082,-0.18221 -0.65947,-0.50715 -0.79481,-0.8171c-0.1665,-0.29379 -0.28316,-0.67892 -0.17729,-1.12402c0,-6.01048 0,-12.33034 0,-18.329c0,-0.02108 0.16387,-4.96622 -0.0325,-4.97529c-0.32995,-0.01524 -0.36664,0.55687 -0.60766,0.78271c-1.67154,1.56628 -3.83732,3.18225 -5.5923,4.60785c-3.92975,3.19219 -7.99802,6.41568 -12.05906,9.46974c-0.31602,0.37181 -0.71019,0.50257 -1.06066,0.52936c-0.34513,0.06519 -0.75938,0.04149 -1.16091,-0.2348l-1.38684,-0.55473c-1.78122,-0.71416 -3.50536,-1.84633 -5.37158,-2.31166c-4.44673,-1.10878 -9.06086,-0.475 -13.56585,-0.23164c-3.75857,0.20303 -7.38882,0.05424 -11.13526,0.64634c-3.83241,0.60569 -8.37924,2.73397 -12.21402,2.54002c-0.01007,-0.00051 -0.02013,-0.00103 -0.0302,-0.00157l0.00077,0.00574l-3.44074,0.45877c-0.08478,0.01262 -0.17155,0.01915 -0.25984,0.01915c-0.9665,0 -1.75,-0.7835 -1.75,-1.75c0,-0.87839 0.64715,-1.60561 1.49068,-1.73091l1.97162,-0.32861l0.00714,0.04282c0.03243,0.00315 0.06489,0.00613 0.09738,0.00897l0.2507,-0.03343c-0.3605,-0.30426 -0.63655,-0.71946 -0.97254,-1.05567c-1.3057,-1.30655 -2.5286,-2.69433 -3.74532,-4.08413c0,0 -0.00112,-0.00128 -0.00325,-0.00379l-0.63763,-0.68403c-6.72767,-4.40036 -14.22884,-8.83604 -21.64145,-11.93471c-2.18359,-0.9128 -6.75123,-2.02368 -9.05848,-3.98462c0.44139,1.11168 0.88969,2.90971 1.03601,3.42312c0.50741,3.55514 -0.03386,7.1898 0.67302,10.69786c2.3008,11.41829 6.04969,22.69117 9.44716,33.8929c0.2254,0.03094 0.47106,0.11504 0.73533,0.27361c1.50061,0.90037 0.60025,2.40098 0.60025,2.40098l-0.35723,0.5874c0.06761,0.2284 0.13501,0.45676 0.20217,0.6851c0,0 0.49379,1.6789 -1.1851,2.17269c-0.25259,0.0743 -0.47836,0.0994 -0.67966,0.08845c-0.8005,1.10817 -1.71098,2.05148 -2.16499,3.48484c-0.83713,2.64296 -0.94705,5.4924 -1.61741,8.16966c-1.63714,6.53834 -4.46121,12.8954 -4.9528,19.70221c-0.24827,3.43773 -0.01468,7.00992 0.00332,10.46912l0.08282,0.16945c6.8288,11.32407 17.55799,18.26858 27.68773,26.34551l0.57164,0.19411c5.67403,1.41986 11.4156,2.18695 17.19458,2.59208c-2.6703,-1.06846 -5.09983,-2.60886 -7.24459,-4.71424zM288.58634,204.02324c-1.32048,1.91086 -3.1784,5.43785 -3.71649,7.71216c-1.0204,4.31291 1.02052,8.19622 3.84869,11.68934c0.51454,-0.75194 1.2362,-1.44094 1.74214,-2.17692c1.73738,-2.52728 4.67344,-4.67113 5.72942,-7.51641c1.03379,-3.08415 2.79125,-5.74542 4.07125,-8.70702c-0.65053,-0.35387 -1.30693,-0.69717 -1.96575,-1.03488c-2.18207,-1.15571 -4.35828,-2.31446 -6.53028,-3.47731c-1.14786,1.11638 -2.36273,2.32983 -3.17899,3.51104zM325.109,183.74882c0.49685,0.20611 0.99617,0.46493 1.49364,0.89224c1.3756,1.18162 2.16493,2.94145 3.51457,4.15263c3.98505,3.57624 8.68228,6.78734 13.08507,9.82897c1.46917,0.05885 1.16376,-2.24729 1.65278,-3.55321c1.60953,-4.29822 3.43791,-8.69959 5.58505,-12.67715c0.01311,-0.02429 0.02135,-0.03924 0.02526,-0.04628c-0.03431,0.06058 -0.38756,0.6725 -0.63203,0.73731c-0.64441,0.17083 -1.33333,0 -2,0c-2.23891,0 -4.51826,-0.09205 -6.75558,0.04037c-5.34394,0.31629 -10.61588,0.60449 -15.96876,0.62512zM325.44048,228.04564c0.67329,-4.00721 2.54646,-7.54311 3.88531,-11.35638c-1.3705,-0.31536 -2.73048,-0.67887 -4.07742,-1.09788c-7.57956,-2.35786 -14.35721,-6.12773 -21.59978,-9.2427l-0.14166,-0.01859c-1.27263,2.92492 -3.02207,5.56208 -4.03038,8.60517c-1.64049,3.9192 -5.1915,6.74132 -7.89763,9.94069c-0.09788,0.11572 0.30022,-0.08889 0.44996,-0.06546c0.70026,0.10957 1.37397,0.36191 2.07584,0.46069c0.75133,0.10574 1.52399,0.01924 2.27117,0.15113c3.31727,0.58551 6.05158,0.93261 9.43382,1.18223c6.59578,0.48678 13.04301,1.37012 19.43392,2.62214zM328.89286,228.62103l-0.21899,1.31395c3.31227,0.71884 6.61381,1.53591 9.91754,2.44728c5.28917,1.46337 10.28436,4.13863 15.63941,5.27822c4.6743,-1.1181 9.33548,-2.57154 13.94343,-4.06034c0.25429,-0.81003 0.47282,-1.57405 0.66557,-2.15354c0.83954,-2.52406 2.27775,-4.99728 2.96363,-7.5424c0.46665,-1.73161 0.42914,-3.55594 0.5584,-5.35009c-4.75199,0.19305 -9.50982,0.19588 -14.19517,0.19588c-8.40094,0 -17.04479,0.07693 -25.384,-1.36667c-1.30787,3.77827 -3.24128,7.3114 -3.88981,11.2377zM375.19657,224.76246c-0.67683,2.53443 -2.06348,5.00562 -2.94117,7.5127c1.69605,-0.55019 3.38315,-1.09302 5.05923,-1.61319c0,0 0.09939,-0.03084 0.25723,-0.05326c0.15739,-0.02538 0.26146,-0.02538 0.26146,-0.02538l0.01461,0.00299c0.05079,-0.00101 0.10389,-0.00031 0.15868,0.00269c8.69203,-1.20729 10.23926,-8.33655 14.65479,-14.45441c0.02159,-0.06114 0.04316,-0.12232 0.06471,-0.18353c-5.48609,1.36412 -11.144,2.06343 -16.83826,2.42191c-0.20712,2.13375 -0.13856,4.31973 -0.69129,6.38947z" fill="#000000" stroke-width="0.5"/><path d="M341.09816,183.07805c2.23732,-0.13242 4.53652,-0.02438 6.77543,-0.02438c0.66667,0 1.35794,0.17431 2.00235,0.00348c0.24447,-0.06481 0.51304,-0.62354 0.54735,-0.68412c-0.00391,0.00704 0.07205,-0.03196 0.05894,-0.00767c-2.14714,3.97756 -3.97569,8.43308 -5.58522,12.7313c-0.48902,1.30592 -0.19786,3.62648 -1.66703,3.56763c-4.40279,-3.04163 -9.17655,-6.30512 -13.1616,-9.88136c-1.34964,-1.21118 -2.13446,-2.9834 -3.51006,-4.16502c-0.49747,-0.42731 -0.99663,-0.68644 -1.49348,-0.89255c5.35288,-0.02063 10.68938,-0.33102 16.03332,-0.64731z" data-paper-data="{&quot;noHover&quot;:false,&quot;origItem&quot;:[&quot;Path&quot;,{&quot;applyMatrix&quot;:true,&quot;segments&quot;:[[[325.109,183.74882],[5.35288,-0.02063],[0.49685,0.20611]],[[326.60264,184.64106],[-0.49747,-0.42731],[1.3756,1.18162]],[[330.11721,188.79369],[-1.34964,-1.21118],[3.98505,3.57624]],[[343.20228,198.62266],[-4.40279,-3.04163],[1.46917,0.05885]],[[344.85506,195.06945],[-0.48902,1.30592],[1.60953,-4.29822]],[[350.44011,182.3923],[-2.14714,3.97756],[0.01311,-0.02429]],[[350.46537,182.34602],[-0.00391,0.00704],[-0.03431,0.06058]],[[349.83334,183.08333],[0.24447,-0.06481],[-0.64441,0.17083]],[[347.83334,183.08333],[0.66667,0],[-2.23891,0]],[[341.07776,183.1237],[2.23732,-0.13242],[-5.34394,0.31629]]],&quot;closed&quot;:true,&quot;fillColor&quot;:[0,0,0,1]}]}" fill="#272727" stroke-width="0.5"/><path d="M309.20375,239.01902c0,-1.75 -1.75255,-1.75808 -1.75255,-1.75808l-0.04563,0.02386c-4.0056,-0.65593 -7.81629,-2.21047 -10.66315,-5.13601c-0.8554,-1.02647 -1.88655,-2.10565 -2.9835,-3.22882c2.04313,0.38108 4.32943,0.62054 5.42934,0.79979c6.08827,0.99218 12.50459,0.85777 18.6522,1.68816c6.81152,0.92007 13.26056,2.52933 19.86999,4.35262c3.50707,0.96446 6.72507,2.17369 9.93135,3.23721c-5.08324,0.77078 -10.31056,0.60654 -15.42974,0.60654l-2.33547,0.00411c-6.8866,0.0032 -13.87825,0.15801 -20.74758,-0.00872c0.04807,-0.16777 0.07474,-0.3614 0.07474,-0.58067z" data-paper-data="{&quot;noHover&quot;:false,&quot;origItem&quot;:[&quot;Path&quot;,{&quot;applyMatrix&quot;:true,&quot;segments&quot;:[[[309.25,239],[0,0],[0,0.21927]],[[309.17446,239.57884],[0.04807,-0.16777],[6.86933,0.16673]],[[329.83333,239.58334],[-6.8866,0.0032],[0,0]],[[332.16666,239.58334],[0,0],[5.11918,0]],[[347.59255,238.98915],[-5.08324,0.77078],[-3.20628,-1.06352]],[[337.66064,235.75624],[3.50707,0.96446],[-6.60943,-1.82329]],[[317.87567,231.44343],[6.81152,0.92007],[-6.14761,-0.83039]],[[299.23717,229.73016],[6.08827,0.99218],[-1.09991,-0.17925]],[[293.80796,228.92975],[2.04313,0.38108],[1.09695,1.12317]],[[296.79223,232.15325],[-0.8554,-1.02647],[2.84686,2.92554]],[[307.45436,237.27382],[-4.0056,-0.65593],[0,0]],[307.5,237.25001],[[309.25,239.00001],[0,-1.75],[0,0]]],&quot;closed&quot;:true,&quot;fillColor&quot;:[0,0,0,1]}]}" fill="#ffffff" stroke-width="0.5"/><path d="M288.56454,203.97824c0.81626,-1.18121 2.05001,-2.39957 3.19787,-3.51595c2.172,1.16285 4.38072,2.33122 6.56279,3.48693c0.65882,0.33771 1.32302,0.68812 1.97355,1.04199c-1.28,2.9616 -3.0296,5.67728 -4.06339,8.76143c-1.05598,2.84528 -4.0477,5.0168 -5.78508,7.54408c-0.50594,0.73598 -1.23263,1.42364 -1.74717,2.17558c-2.82817,-3.49312 -4.90365,-7.42553 -3.88325,-11.73844c0.53809,-2.27431 2.4242,-5.84476 3.74468,-7.75562z" data-paper-data="{&quot;noHover&quot;:false,&quot;origItem&quot;:[&quot;Path&quot;,{&quot;applyMatrix&quot;:true,&quot;segments&quot;:[[[288.58634,204.02324],[0,0],[-1.32048,1.91086]],[[284.86985,211.7354],[0.53809,-2.27431],[-1.0204,4.31291]],[[288.71854,223.42474],[-2.82817,-3.49312],[0.51454,-0.75194]],[[290.46068,221.24782],[-0.50594,0.73598],[1.73738,-2.52728]],[[296.1901,213.73141],[-1.05598,2.84528],[1.03379,-3.08415]],[[300.26135,205.02439],[-1.28,2.9616],[-0.65053,-0.35387]],[[298.2956,203.98951],[0.65882,0.33771],[-2.18207,-1.15571]],[[291.76532,200.5122],[2.172,1.16285],[-1.14786,1.11638]],[[288.58633,204.02324],[0.81626,-1.18121],[0,0]]],&quot;closed&quot;:true,&quot;fillColor&quot;:[0,0,0,1]}]}" fill="#ffffff" stroke-width="0.5"/><path d="M325.28317,229.25727c-6.39091,-1.25202 -12.90093,-2.12169 -19.49671,-2.60847c-3.38224,-0.24962 -6.13724,-0.61712 -9.45451,-1.20263c-0.74718,-0.13189 -1.52136,-0.04842 -2.27269,-0.15416c-0.70187,-0.09878 -1.37684,-0.35412 -2.0771,-0.46369c-0.14974,-0.02343 -0.54793,0.18095 -0.45005,0.06523c2.70613,-3.19937 6.25554,-6.05164 7.89603,-9.97084c1.00831,-3.04309 2.78024,-5.71046 4.05287,-8.63538l0.14202,0.01837c7.24257,3.11497 14.09524,6.92051 21.6748,9.27837c1.34694,0.41901 2.70737,0.78695 4.07787,1.10231c-1.33885,3.81327 -3.22068,7.3803 -3.89397,11.38751z" data-paper-data="{&quot;noHover&quot;:false,&quot;origItem&quot;:[&quot;Path&quot;,{&quot;applyMatrix&quot;:true,&quot;segments&quot;:[[[325.44048,228.04564],[0,0],[0.67329,-4.00721]],[[329.32579,216.68926],[-1.33885,3.81327],[-1.3705,-0.31536]],[[325.24837,215.59138],[1.34694,0.41901],[-7.57956,-2.35786]],[[303.64859,206.34868],[7.24257,3.11497],[0,0]],[[303.50693,206.33009],[0,0],[-1.27263,2.92492]],[[299.47655,214.93526],[1.00831,-3.04309],[-1.64049,3.9192]],[[291.57892,224.87595],[2.70613,-3.19937],[-0.09788,0.11572]],[[292.02888,224.81049],[-0.14974,-0.02343],[0.70026,0.10957]],[[294.10472,225.27118],[-0.70187,-0.09878],[0.75133,0.10574]],[[296.37589,225.42231],[-0.74718,-0.13189],[3.31727,0.58551]],[[305.80971,226.60454],[-3.38224,-0.24962],[6.59578,0.48678]],[[325.24363,229.22668],[-6.39091,-1.25202],[0,0]]],&quot;closed&quot;:true,&quot;fillColor&quot;:[0,0,0,1]}]}" fill="#ffffff" stroke-width="0.5"/><path d="M328.84293,228.62356c0.64853,-3.9263 2.58847,-7.48678 3.89634,-11.26505c8.33921,1.4436 17.05933,1.3538 25.46027,1.3538c4.68535,0 9.45657,0.01587 14.20856,-0.17718c-0.12926,1.79415 -0.08871,3.62909 -0.55536,5.3607c-0.68588,2.54512 -2.12449,5.03719 -2.96403,7.56125c-0.19275,0.57949 -0.41289,1.34931 -0.66718,2.15934c-4.60795,1.4888 -9.29921,2.97292 -13.97351,4.09102c-5.35505,-1.13959 -10.41374,-3.84293 -15.70291,-5.3063c-3.30373,-0.91137 -6.60867,-1.74182 -9.92094,-2.46066l0.21875,-1.3169z" data-paper-data="{&quot;noHover&quot;:false,&quot;origItem&quot;:[&quot;Path&quot;,{&quot;applyMatrix&quot;:true,&quot;segments&quot;:[[328.89286,228.62103],[[328.67387,229.93498],[0,0],[3.31227,0.71884]],[[338.59141,232.38226],[-3.30373,-0.91137],[5.28917,1.46337]],[[354.23082,237.66048],[-5.35505,-1.13959],[4.6743,-1.1181]],[[368.17425,233.60014],[-4.60795,1.4888],[0.25429,-0.81003]],[[368.83982,231.4466],[-0.19275,0.57949],[0.83954,-2.52406]],[[371.80345,223.9042],[-0.68588,2.54512],[0.46665,-1.73161]],[[372.36185,218.55411],[-0.12926,1.79415],[-4.75199,0.19305]],[[358.16668,218.74999],[4.68535,0],[-8.40094,0]],[[332.78268,217.38332],[8.33921,1.4436],[-1.30787,3.77827]],[[328.89287,228.62102],[0.64853,-3.9263],[0,0]]],&quot;closed&quot;:true,&quot;fillColor&quot;:[0,0,0,1]}]}" fill="#ffffff" stroke-width="0.5"/><path d="M375.14675,224.76688c0.55273,-2.06974 0.49624,-4.29296 0.70336,-6.42671c5.69426,-0.35848 11.429,-1.05616 16.91509,-2.42028c-0.02155,0.06121 -0.04287,0.1227 -0.06446,0.18384c-4.41553,6.11786 -6.03056,13.31909 -14.72259,14.52638c-0.05479,-0.003 -0.10857,-0.00418 -0.15936,-0.00317l-0.01468,-0.00304c0,0 -0.10504,-0.00072 -0.26243,0.02466c-0.15784,0.02242 -0.25805,0.05263 -0.25805,0.05263c-1.67608,0.52017 -3.37127,1.05495 -5.06732,1.60514c0.87769,-2.50708 2.25363,-5.00501 2.93046,-7.53944z" data-paper-data="{&quot;noHover&quot;:false,&quot;origItem&quot;:[&quot;Path&quot;,{&quot;applyMatrix&quot;:true,&quot;segments&quot;:[[[375.19657,224.76246],[0,0],[-0.67683,2.53443]],[[372.2554,232.27516],[0.87769,-2.50708],[1.69605,-0.55019]],[[377.31463,230.66197],[-1.67608,0.52017],[0,0]],[[377.57186,230.60871],[-0.15784,0.02242],[0.15739,-0.02538]],[377.83332,230.58333],[[377.84793,230.58632],[0,0],[0.05079,-0.00101]],[[378.00661,230.58901],[-0.05479,-0.003],[8.69203,-1.20729]],[[392.6614,216.1346],[-4.41553,6.11786],[0.02159,-0.06114]],[[392.72611,215.95107],[-0.02155,0.06121],[-5.48609,1.36412]],[[375.88785,218.37298],[5.69426,-0.35848],[-0.20712,2.13375]],[[375.19656,224.76245],[0.55273,-2.06974],[0,0]]],&quot;closed&quot;:true,&quot;fillColor&quot;:[0,0,0,1]}]}" fill="#ffffff" stroke-width="0.5"/><path d="M380.88079,186.06762c0,0 0.01385,0.00001 0.0391,-0.00122c5.50328,1.85993 10.16934,3.71154 14.31804,8.08827c1.13114,1.19332 1.23174,3.35731 1.2287,4.84674c-0.00899,4.40108 -1.02873,8.76497 -2.35745,12.98841l-0.04206,0.00857c-11.51754,3.29072 -23.95819,3.29288 -35.87221,3.29288c-10.59967,0 -21.72265,0.17449 -31.94623,-3.01188c-7.44687,-2.32095 -14.11022,-6.05213 -21.22493,-9.12104c-0.19649,-0.1031 -0.39515,-0.16128 -0.5562,-0.19375c-0.16193,-0.0338 -0.36896,-0.05906 -0.59183,-0.04097c-0.1816,-0.23274 -0.45804,-0.44034 -0.87203,-0.57834c-0.22566,-0.07522 -0.43088,-0.10974 -0.61703,-0.1129c-0.83289,-0.46214 -1.67611,-0.90806 -2.52326,-1.34305c-1.36868,-0.72429 -2.76393,-1.43153 -4.17316,-2.12928c9.80933,-3.4096 18.72046,-8.99909 29.05182,-10.72098c0,0 0.17949,0.02644 0.3129,-0.01634c0.94779,1.10045 1.67943,2.40327 2.75679,3.37824c4.37478,3.95902 9.64772,7.57341 14.68417,10.60423c1.27453,-0.23348 2.72756,0.03124 3.78924,-0.71157c0.79387,-0.55544 1.45511,-4.03698 1.81777,-5.00263c1.35137,-3.59826 3.63909,-7.04747 4.40888,-10.82877c0.37526,-0.02339 0.70253,-0.23039 0.70253,-0.23039c7.28514,-3.12725 14.93793,-5.69297 22.85047,-5.26441c-0.05402,0.11927 -0.10637,0.24784 -0.1573,0.3856c-0.36574,0.9894 0.6573,2.01031 0.93468,3.02803c0.27448,1.00708 -0.15699,2.49122 0.72383,3.05131c0.88122,0.56035 2.04777,-0.22057 3.09732,-0.45273c0.07193,0.02421 0.14377,0.04859 0.21542,0.07279l0.00203,0.01515z" data-paper-data="{&quot;noHover&quot;:false,&quot;origItem&quot;:[&quot;Path&quot;,{&quot;applyMatrix&quot;:true,&quot;segments&quot;:[[380.83333,186.08333],[[380.83131,186.0682],[0,0],[-0.07165,-0.0242]],[[380.61595,185.99559],[0.07193,0.02421],[-1.04955,0.23216]],[[377.5189,186.44911],[0.88122,0.56035],[-0.88082,-0.56009]],[[376.79681,183.40206],[0.27448,1.00708],[-0.27738,-1.01772]],[[375.86423,180.37808],[-0.36574,0.9894],[0.05093,-0.13776]],[[376.02171,179.9928],[-0.05402,0.11927],[-7.91254,-0.42856]],[[353.18935,185.27517],[7.28514,-3.12725],[0,0]],[[352.53523,185.41807],[0.37526,-0.02339],[-0.76979,3.7813]],[[348.14493,196.26388],[1.35137,-3.59826],[-0.36266,0.96565]],[[346.28796,201.34357],[0.79387,-0.55544],[-1.06168,0.74281]],[[342.46438,202.04401],[1.27453,-0.23348],[-5.03645,-3.03082]],[[327.7644,191.38492],[4.37478,3.95902],[-1.07736,-0.97497]],[[325.00946,188.00202],[0.94779,1.10045],[-0.13341,0.04278]],[[324.78769,188.05953],[0,0],[-10.33136,1.72189]],[[295.74023,198.75891],[9.80933,-3.4096],[1.40923,0.69775]],[[299.91328,200.88579],[-1.36868,-0.72429],[0.84715,0.43499]],[[302.43639,202.22712],[-0.83289,-0.46214],[0.18615,0.00316]],[[303.0534,202.33982],[-0.22566,-0.07522],[0.41399,0.138]],[[303.92534,202.91738],[-0.1816,-0.23274],[0.22287,-0.01809]],[[304.51715,202.95821],[-0.16193,-0.0338],[0.16105,0.03247]],[[305.07331,203.15164],[-0.19649,-0.1031],[7.11471,3.06891]],[[326.28888,212.24964],[-7.44687,-2.32095],[10.22358,3.18637]],[[358.16667,215.25002],[-10.59967,0],[11.91402,0]],[[394.01924,211.98402],[-11.51754,3.29072],[0,0]],[[394.06129,211.97547],[0,0],[1.32872,-4.22344]],[[396.41666,199.00002],[-0.00899,4.40108],[0.00304,-1.48943]],[[395.18806,194.15817],[1.13114,1.19332],[-4.1487,-4.37673]],[[380.87243,186.08212],[5.50328,1.85993],[-0.02525,0.00123]],[380.83333,186.08335]],&quot;closed&quot;:true,&quot;fillColor&quot;:[0,0,0,1]}]}" fill="#ffffff" stroke-width="0.5"/></g></g></svg>