<svg version="1.1" xmlns="http://www.w3.org/2000/svg" xmlns:xlink="http://www.w3.org/1999/xlink" width="352.47926" height="242.0734" viewBox="0,0,352.47926,242.0734"><g transform="translate(-129.27092,-59.52279)"><g data-paper-data="{&quot;isPaintingLayer&quot;:true}" fill-rule="nonzero" stroke-linejoin="miter" stroke-miterlimit="10" stroke-dasharray="" stroke-dashoffset="0" style="mix-blend-mode: normal"><path d="M216.39282,135.89283l17.33333,-33l50,-16.66667l7,11.33333l58.33333,1.33333l6.66667,-13.33333l51.33333,15.33333l15.33333,21c0,0 14.33333,41.96518 14.33333,64c0,23.5332 -14.33333,73 -14.33333,73l-38.33333,17l-15.33333,-20.66667l16.66667,-8l27.33333,-31.66667c0,0 -55.66354,39.85273 -91.99867,39.17497c-31.60911,-0.5896 -95.33466,-52.50831 -95.33466,-52.50831l26.99999,41.99999l19.33333,10.66667l-11.66667,21l-41.33333,-18.66667c0,0 -14.2656,-46.81109 -14.67961,-68.33949c-0.3545,-18.4339 12.34627,-52.99384 12.34627,-52.99384z" fill="#5865f2" stroke="#000000" stroke-width="2.5" stroke-linecap="round"/><path d="M258.55949,161.22616c12.24231,0 22.16667,10.89441 22.16667,24.33334c0,13.43893 -9.92436,24.33333 -22.16667,24.33333c-12.24231,0 -22.16667,-10.8944 -22.16667,-24.33333c0,-13.43893 9.92436,-24.33334 22.16667,-24.33334z" fill="#d7daf2" stroke="#000000" stroke-width="2.5" stroke-linecap="butt"/><path d="M358.89282,162.22615c12.24231,0 22.16667,10.89441 22.16667,24.33334c0,13.43893 -9.92436,24.33333 -22.16667,24.33333c-12.24231,0 -22.16666,-10.8944 -22.16666,-24.33333c0,-13.43893 9.92435,-24.33334 22.16666,-24.33334z" fill="#d7daf2" stroke="#000000" stroke-width="2.5" stroke-linecap="butt"/><path d="M294.39282,220.22616l7.33333,-5l22,-112.66666l15,114.66667l8.66667,5.66667" fill="none" stroke="#000000" stroke-width="2.5" stroke-linecap="round"/><path d="M320.55949,299.84619c-71.4197,0 -129.31681,-53.40648 -129.31681,-119.2867c0,-65.88023 57.89711,-119.2867 129.31681,-119.2867c71.4197,0 129.31681,53.40648 129.31681,119.2867c0,65.88023 -57.89711,119.2867 -129.31681,119.2867z" fill="none" stroke="#ff0000" stroke-width="3.5" stroke-linecap="butt"/><path d="M411.18872,102.10968c0,2.5719 -0.64152,4.65684 -1.43287,4.65684c-0.79135,0 -1.43287,-2.08494 -1.43287,-4.65684c0,-2.5719 0.64152,-4.65684 1.43287,-4.65684c0.79135,0 1.43287,2.08494 1.43287,4.65684z" fill="none" stroke="#ff0000" stroke-width="3.5" stroke-linecap="butt"/><path d="M139.30855,131.12536c0,-2.35704 2.22226,-2.49183 2.47641,-2.49953c3.6917,-2.33878 7.71124,-3.97649 11.55975,-6.055c-4.19083,-1.14407 -8.51601,-1.86417 -12.65826,-3.09834c-3.03852,-0.90532 -6.07051,-1.96387 -9.2181,-2.34447c0,0 -2.48069,-0.31009 -2.17061,-2.79078c0.31009,-2.48069 2.79078,-2.17061 2.79078,-2.17061c3.41768,0.43956 6.72522,1.52861 10.02701,2.51444c2.09013,0.62406 4.2253,1.09721 6.36272,1.57271c-2.27277,-1.90793 -4.26863,-4.32021 -6.39833,-6.40412l-0.06311,-0.19449l-0.05896,0.04422l-2.13416,-2.84554c-0.32311,-0.42124 -0.51515,-0.94829 -0.51515,-1.5202c0,-1.38071 1.11929,-2.5 2.5,-2.5c0.57191,0 1.09897,0.19204 1.5202,0.51515l2.7936,2.0952c4.71823,2.16315 8.44511,6.81089 12.31634,10.13572c1.88733,1.62095 5.0179,2.30337 4.44866,6.00583c-0.22645,1.47291 -2.07569,2.15571 -3.26389,3.05511c-4.75875,3.6021 -10.76293,5.2514 -15.71173,8.56484l-2.10319,0.41987c0,0 -2.5,0 -2.5,-2.5z" fill="#ff0000" stroke="none" stroke-width="0.5" stroke-linecap="butt"/><path d="M470.28721,265.09901c0,2.5 -2.5,2.5 -2.5,2.5h-2.14931c-3.99725,-0.01548 -7.96009,-0.77431 -11.90141,-1.47162c-1.52303,-0.26946 -3.87931,-1.37979 -5.44651,-0.23933c-0.20685,0.15053 -0.06976,0.38812 0.11372,0.64962c1.6703,2.17389 2.93448,5.19844 4.27048,7.20668c4.68676,7.04505 8.5433,14.13182 14.12872,20.51516c0,0 1.64626,1.88144 -0.23518,3.5277c-1.88144,1.64626 -3.5277,-0.23518 -3.5277,-0.23518c-5.16617,-5.90419 -8.91996,-12.18781 -13.06831,-18.83948c-0.45488,-0.72937 -0.91332,-1.46234 -1.37449,-2.19603c-0.09348,0.84983 -0.27217,1.67181 -0.69472,2.39768c-0.08865,0.15229 -0.18554,0.29782 -0.28948,0.43755l0.04479,0.02986l-1.41136,2.11705c-0.44514,0.68925 -1.2201,1.14551 -2.10163,1.14551c-1.18975,0 -2.18539,-0.83109 -2.43804,-1.9444l-0.70375,-2.81501l0.01689,-0.00422l-0.03062,-0.05365c-0.80633,-4.02771 -3.5706,-11.75133 0.70223,-15.01016c0.70669,-0.53898 1.58846,-0.29836 2.47268,0.20035c0.04133,-0.04841 0.08594,-0.09513 0.13406,-0.14001c5.5338,-5.16209 14.96432,-0.24877 21.33966,-0.27807h2.14931c0,0 2.5,0 2.5,2.5z" fill="#ff0000" stroke="none" stroke-width="0.5" stroke-linecap="butt"/><path d="M446.20736,84.87182c1.11803,-2.23607 3.3541,-1.11803 3.3541,-1.11803l2.39496,1.56575c0.84414,1.33214 2.37732,2.09406 3.37625,3.31443c0.69433,0.84824 1.07598,1.9039 1.54592,2.90099c0.53532,-0.41003 1.08368,-0.80224 1.64106,-1.1773c0,0 0.75047,-0.50031 1.65038,-0.44914c0.66238,-1.3086 1.29063,-2.51897 1.44436,-2.70742c0.54426,-0.66722 1.59744,-0.77193 2.14931,-1.43287c0.63307,-0.7582 0.85264,-1.78201 1.27896,-2.67302l2.40965,-2.4553c0,0 1.76777,-1.76777 3.53553,0c1.76777,1.76777 0,3.53553 0,3.53553l-1.88897,1.84332c-0.52893,1.01949 -0.85229,2.1755 -1.58678,3.05848c-0.55065,0.66196 -1.58939,0.77874 -2.14931,1.43287c-1.0366,1.21102 -1.52961,2.73111 -2.14764,4.19989c0.47966,-0.367 0.94764,-0.74675 1.37142,-1.17424c0,0 1.76777,-1.76777 3.53553,0c0.48449,0.48449 0.70341,0.96898 0.76594,1.41708c2.73761,0 5.47523,0 8.21284,0h2.14931c0,0 2.5,0 2.5,2.5c0,2.5 -2.5,2.5 -2.5,2.5h-2.14931c-4.06921,0 -8.14028,0.02624 -12.21119,0.03807c-3.17798,2.53479 -7.29845,4.69117 -8.59943,-0.01067c-0.40555,-0.00285 -0.81109,-0.00614 -1.21661,-0.00989c-0.82301,0.50263 -1.63625,0.79203 -2.40098,0.69797c-0.65796,-0.08093 -1.24426,-0.35938 -1.797,-0.73039c-1.98602,-0.10539 -4.16948,-0.60708 -4.63645,-2.73832c-0.08636,-0.39415 -0.10575,-0.78727 -0.07637,-1.17964h-0.21945v-2.86575c0,-1.38071 1.11929,-2.5 2.5,-2.5c0.99801,0 1.85943,0.58479 2.26029,1.43041l1.39009,2.78018c0.30907,-0.02546 0.62205,-0.04163 0.9372,-0.0507c-0.25048,-0.29137 -0.37572,-0.54185 -0.37572,-0.54185c-1.26519,-2.75162 -3.11333,-3.64809 -4.85911,-6.17921l-0.47078,0.13288c0,0 -2.23607,-1.11803 -1.11803,-3.3541z" fill="#ff0000" stroke="none" stroke-width="0.5" stroke-linecap="butt"/></g></g></svg>