<svg version="1.1" xmlns="http://www.w3.org/2000/svg" xmlns:xlink="http://www.w3.org/1999/xlink" width="352.52672" height="245.89438" viewBox="0,0,352.52672,245.89438"><g transform="translate(-92.97328,-12.75)"><g data-paper-data="{&quot;isPaintingLayer&quot;:true}" fill-rule="nonzero" stroke="none" stroke-linecap="butt" stroke-linejoin="miter" stroke-miterlimit="10" stroke-dasharray="" stroke-dashoffset="0" style="mix-blend-mode: normal"><path d="M178,123.5c0,-1.25 1.25,-1.25 1.25,-1.25h0.5c2.00844,0 4.08163,-0.0237 5.87276,0.65341c0.10166,-0.05107 0.21953,-0.0933 0.35607,-0.12364c1.22024,-0.27116 1.4914,0.94907 1.4914,0.94907c0.02244,0.10098 0.04509,0.20183 0.06796,0.30258c0.03208,0.0278 0.06397,0.05603 0.09569,0.0847c0,0 0.66585,0.66586 0.26378,1.41965c2.24677,8.95804 6.16452,17.04645 10.39206,25.26315c2.30558,4.48114 4.1727,8.84685 7.04765,13.00894c9.73209,14.08922 24.09332,24.40238 39.83932,31.03101c10.07127,4.24889 20.71733,8.97365 31.59776,10.74293c5.45925,0.88774 11.45405,0.66821 16.97555,0.66821c8.70662,0 18.72706,-0.41316 24.94425,-7.51921c4.67229,-5.34027 6.26148,-13.53217 7.90084,-20.22779c1.66805,-6.81162 2.09307,-13.73535 3.24392,-20.64047c1.53544,-9.21268 3.7303,-18.29462 6.23609,-27.28924c2.10275,-4.64418 4.42139,-8.94842 7.71297,-12.87156l1.44738,-0.45164c0,0 1.24991,-0.01457 1.26448,1.23535c0.01236,1.06055 -0.88564,1.23171 -1.15803,1.25923c-2.91493,3.57271 -5.00233,7.48757 -6.91698,11.68205c-2.43614,8.85751 -4.60915,17.78217 -6.11993,26.84682c-1.16124,6.96746 -1.59865,13.94914 -3.28162,20.82401c-1.74102,7.11084 -3.48976,15.61278 -8.44759,21.27943c-6.73199,7.69446 -17.35785,8.37303 -26.82577,8.37303c-5.65545,0 -11.78366,0.2089 -17.37681,-0.70062c-11.07936,-1.80164 -21.91244,-6.58036 -32.16826,-10.90712c-16.17964,-6.83983 -30.91491,-17.42255 -40.92453,-31.91356c-2.93798,-4.25333 -4.85915,-8.70972 -7.21369,-13.28605c-4.43324,-8.61651 -8.51553,-17.1043 -10.77731,-26.54702c-1.40825,-0.84405 -3.97217,-0.64565 -5.5394,-0.64565h-0.5c0,0 -1.25,0 -1.25,-1.25z" fill="#000000" stroke-width="0.5"/><path d="M289,111c0,-0.69035 0.55964,-1.25 1.25,-1.25c0.69036,0 1.25,0.55965 1.25,1.25c0,0.69035 -0.55964,1.25 -1.25,1.25c-0.69036,0 -1.25,-0.55965 -1.25,-1.25z" fill="#000000" stroke-width="0.5"/><path d="M199.61562,105.3191c-2.71675,0.7789 -2.23077,3.0777 -2.53343,5.77719c-0.01507,0.13444 -0.66854,3.21068 0.33373,3.16477c2.08741,-0.09562 7.01686,-4.012 6.61753,-6.47387c-0.17415,-1.07363 -2.72319,-1.88258 -3.58661,-2.07451zM199.19035,102.85002c0.24142,-0.11736 0.49283,-0.12224 0.69602,-0.0923c0.21844,0.01583 0.48182,0.08223 0.70081,0.27577l0.46599,0.25383c1.752,0.47342 4.94916,1.7379 5.41339,3.92549c0.83625,3.94073 -4.24415,7.78593 -7.2382,8.94204c-0.69107,0.26685 -1.42272,0.75186 -2.14427,0.58409c-4.14065,-0.96277 -2.35862,-5.52574 -2.07982,-8.34204c0.0753,-0.7606 -0.23368,-1.58649 0.05989,-2.29219c0.42423,-1.01978 1.11375,-1.97946 1.99442,-2.64607c0.58967,-0.44634 1.39808,-0.4523 2.13178,-0.60863z" fill="#000000" stroke-width="0.5"/><path d="M317.49708,95.72167c0.15738,0.64164 -0.36319,1.16222 -0.36319,1.16222c-0.58202,0.47459 -0.89569,2.59042 -0.5498,2.37717c0.99867,-0.6157 4.62281,-3.96168 2.21389,-4.01198l-1.15269,0.43677c0,0 -0.0562,0.01873 -0.14821,0.03581zM316.0236,94.75458c-0.2603,-1.07663 0.83112,-1.44044 0.83112,-1.44044l1.84731,-0.56323c1.01108,0.32661 2.30083,0.21005 3.03323,0.97982c2.17672,2.28781 -2.49876,7.88065 -4.81934,8.00821c-4.39262,0.24146 -3.2354,-4.75877 -1.5498,-6.62283c0,0 0.26849,-0.26848 0.65749,-0.36153z" fill="#000000" stroke-width="0.5"/><path d="M347,111.5c0,-1.25 1.25,-1.25 1.25,-1.25h1.5c1.64993,0 4.54477,-0.47301 5.88389,0.86611c1.84884,1.84884 1.36611,7.57982 1.36611,9.88389c0,0 0,1.25 -1.25,1.25c-1.25,0 -1.25,-1.25 -1.25,-1.25c0,-2.06669 -0.20222,-3.82836 -0.49063,-5.84727c-0.10717,-0.75017 0.39258,-1.73301 -0.14325,-2.26884c-0.51092,-0.51093 -3.68426,-0.13389 -4.11611,-0.13389h-1.5c0,0 -1.25,0 -1.25,-1.25z" fill="#000000" stroke-width="0.5"/><path d="M171.75,121.25c1.25,0 1.25,1.25 1.25,1.25v1c-0.1053,2.23369 1.47887,2.98496 3.30901,3.88196c0,0 1.11803,0.55901 0.55902,1.67705c-0.55901,1.11803 -1.67705,0.55902 -1.67705,0.55902c-2.80255,-1.42456 -4.59517,-2.79118 -4.69099,-6.11803v-1c0,0 0,-1.25 1.25,-1.25z" fill="#000000" stroke-width="0.5"/><path d="M314.25,212.75c1.25,0 1.25,1.25 1.25,1.25l-0.06414,0.89529c-1.49415,4.38962 -5.2722,6.63101 -8.89064,9.21569c-3.29926,2.35668 -6.15407,4.63599 -10.14248,5.62966c-3.71757,0.01313 -7.43514,0.00937 -11.15273,0.00937c-1.98436,0 -4.8636,0.51364 -6.78719,-0.03344c-2.46875,-0.70212 -4.35274,-2.59194 -6.0967,-4.33267c-3.45608,-3.44971 -8.17426,-7.27552 -9.80197,-11.9886c0,0 -0.39529,-1.18586 0.79057,-1.58114c1.18586,-0.39529 1.58114,0.79057 1.58114,0.79057c1.34738,4.24288 6.1317,7.93914 9.19803,11.0114c1.36237,1.365 2.95171,3.10602 4.9033,3.66733c1.69368,0.48712 4.452,-0.03344 6.21281,-0.03344c3.61576,0 7.23154,-0.00506 10.84727,0.00937c3.49068,-0.87665 6.1067,-3.11982 8.99485,-5.18273c3.09303,-2.20925 6.73856,-4.17282 7.97202,-7.97192l-0.06414,-0.10471c0,0 0,-1.25 1.25,-1.25z" fill="#000000" stroke-width="0.5"/><path d="M279.11223,255.80364c1.0527,0.36057 2.22529,-0.04566 3.338,-0.0375c4.70893,1.56964 7.65078,-3.38879 10.64812,-6.38226c6.93235,-6.92338 13.25863,-14.72449 19.7528,-22.08991c9.97476,-11.31296 21.03986,-21.36903 32.02877,-31.69166l0.48619,-0.48619c1.83177,-1.82405 3.12326,-3.97057 4.78966,-5.93869c6.13981,-7.25148 12.12093,-14.96505 18.83598,-21.68694c12.31102,-12.31102 23.73738,-25.44563 36.45668,-37.32465c10.4558,-9.76505 20.85188,-19.47568 31.78617,-28.68882c-5.17895,-1.7296 -10.56337,-3.17637 -15.63914,-5.13954c-3.69718,-1.42997 -6.99799,-3.22646 -10.82355,-4.35162c-16.56399,-4.87176 -33.05675,-9.9792 -49.82518,-14.09776c-16.76857,-4.1186 -33.356,-8.77304 -49.97801,-13.44595c-14.40732,-4.05031 -28.7388,-7.93933 -43.34772,-11.1903c-2.76006,1.74677 -6.63853,2.56797 -9.71209,3.87178c-7.6804,3.25803 -15.5761,5.965 -23.30733,9.09444c-16.23292,6.57018 -32.35555,13.50993 -48.90543,19.23874c-16.41023,5.68046 -32.73013,11.59423 -49.0561,17.51214c-13.53092,4.90474 -26.92616,9.88847 -40.18815,15.45843c5.96865,5.86522 12.58659,11.2153 19.03566,16.53549c13.50283,11.1392 27.14887,22.12758 40.41754,33.5448c13.01335,11.19753 26.45395,21.57765 40.14883,31.92844c13.83871,10.45949 27.86879,20.56757 42.04028,30.57103c4.00234,2.8252 7.93453,6.12456 12.16353,8.59179c8.49116,4.9538 18.13377,8.56716 27.02649,12.77099c0,0 1.13009,0.53422 0.59587,1.66431c-0.17559,0.37145 -0.41556,0.5631 -0.65862,0.653c0.58445,0.48443 1.20639,0.882 1.89076,1.11641zM346.60585,197.41106c-10.93631,10.27351 -21.95272,20.27775 -31.8795,31.53629c-7.08351,8.03382 -14.032,16.37608 -21.59245,23.93653c-3.24163,3.24164 -6.05897,7.02502 -11.08411,5.34998c-0.30919,0.00277 -3.38572,0.05302 -3.662,-0.03749c-2.92162,-0.95711 -4.5499,-3.96264 -6.88777,-5.69637l-0.80901,-0.38197c0,0 -0.022,-0.011 -0.05828,-0.033c-7.30325,-3.2401 -14.83199,-6.35795 -21.63477,-10.32674c-4.29262,-2.50435 -8.28341,-5.84142 -12.34546,-8.70876c-14.19359,-10.01907 -28.24566,-20.14321 -42.10597,-30.61902c-13.73673,-10.38242 -27.2188,-20.79599 -40.27203,-32.02784c-13.25554,-11.40593 -26.88837,-22.38317 -40.37784,-33.51134c-6.8084,-5.61661 -13.7877,-11.27089 -20.03053,-17.50745l-0.31043,-0.31044c-0.16909,-0.11276 -0.32587,-0.28952 -0.44531,-0.55965c-0.09947,-0.19983 -0.17654,-0.46533 -0.11524,-0.75785c0.0528,-0.29417 0.22376,-0.51144 0.39087,-0.65942c0.2121,-0.20579 0.42383,-0.31092 0.62296,-0.35203c13.78176,-5.83827 27.70754,-11.02519 41.77912,-16.12592c16.33734,-5.92203 32.66864,-11.83983 49.0903,-17.52425c16.5093,-5.71475 32.59211,-12.63957 48.78526,-19.19365c7.71852,-3.12376 15.60151,-5.8257 23.26894,-9.07853c2.90664,-1.23311 7.16758,-2.04548 9.59384,-3.84143l0.68083,-0.12838c0.18455,-0.07608 0.3723,-0.09736 0.5209,-0.09822l0.02186,-0.00412c0,0 0.05253,0 0.13603,0.01076c0.08386,0.0076 0.13513,0.019 0.13513,0.019c14.70306,3.26734 29.12587,7.17981 43.62415,11.25568c16.59539,4.66543 33.15604,9.31282 49.89774,13.42482c16.80511,4.12757 33.33409,9.24478 49.93428,14.12718c3.89168,1.14461 7.2621,2.96492 11.01996,4.41836c5.24265,2.02772 10.8194,3.4986 16.15136,5.30947l1.24833,0.41611c0.2246,0.02016 0.46685,0.11498 0.70022,0.34507c0.18092,0.15086 0.35808,0.37391 0.40644,0.687c0.06905,0.30919 -0.01465,0.58146 -0.12815,0.78788c-0.1334,0.29915 -0.3243,0.47569 -0.52599,0.57634c-11.45491,9.55842 -22.29163,19.68251 -33.19468,29.86526c-12.69808,11.85921 -24.10452,24.97455 -36.3953,37.26532c-8.55721,8.54799 -15.14184,19.1093 -23.62563,27.62563l-0.5,0.5c0,0 -0.00484,0.00484 -0.01416,0.01344c-0.00889,0.00904 -0.01388,0.01373 -0.01388,0.01373z" fill="#000000" stroke-width="0.5"/><path d="M260.5,93.5c0,0.13406 -0.01438,0.25373 -0.04005,0.36058c0.15973,-0.10417 0.32497,-0.2131 0.49756,-0.32726c0.13467,-0.13595 0.26222,-0.27091 0.38301,-0.40514c-0.28076,0.09553 -0.56182,0.18962 -0.84271,0.2828c0.00144,0.02894 0.00218,0.05861 0.00218,0.08901zM258.64529,94.68586c-3.02805,1.00935 -6.20427,2.38997 -9.40406,2.54946c1.71152,1.30922 5.51511,-0.96031 7.15546,-1.43435c1.08298,-0.31297 1.8675,-0.6452 2.64459,-1.07311zM251.10761,94.50815c-0.06916,-0.15525 -0.10761,-0.32721 -0.10761,-0.50814c0,-0.69035 0.55964,-1.25 1.25,-1.25c0.64414,0 1.17447,0.48721 1.2426,1.11322c0.67742,-0.22074 1.35058,-0.46422 2.01422,-0.7078c-0.00448,-0.04954 -0.00682,-0.1013 -0.00682,-0.15542c0,-1.25 1.25,-1.25 1.25,-1.25l0.60471,0.06414c1.86042,-0.62012 3.80526,-1.21025 5.65888,-1.95211c0.06403,-0.21133 0.12561,-0.42382 0.1837,-0.6378c-1.50702,0.41654 -3.01038,0.84461 -4.48305,1.43636c0,0 -1.1606,0.46424 -1.62484,-0.69635c-0.46424,-1.1606 0.69635,-1.62484 0.69635,-1.62484c0.6693,-0.26659 1.33652,-0.48442 2.00365,-0.677c-0.46242,-0.18339 -0.7894,-0.63471 -0.7894,-1.16241c0,-0.69035 0.55964,-1.25 1.25,-1.25c0.69036,0 1.25,0.55965 1.25,1.25c0,0.29387 -0.10142,0.56407 -0.27116,0.77748c0.75225,-0.18965 1.50615,-0.3687 2.26453,-0.57071c0.00157,-0.09663 0.00278,-0.1942 0.00372,-0.29279c-0.06374,-0.42876 -0.13035,-0.76608 0.00306,-1.03436c-0.00007,-0.1249 -0.00016,-0.25142 -0.00016,-0.37962v-1.21712c-4.37844,0.43383 -11.60406,4.96581 -13.09552,8.69636c-0.04724,0.11816 -0.38517,1.15655 -0.69223,2.23353c0.46308,-0.0402 0.92876,-0.11084 1.39535,-0.20462zM266.08068,88.40106c-0.02133,0.0066 -0.04266,0.01317 -0.06399,0.01973c-0.00142,0.00649 -0.00284,0.01297 -0.00427,0.01946c0.02279,-0.01301 0.04555,-0.02608 0.06826,-0.03919zM269.04584,84.76679c0.95968,0.00224 2.42046,-0.23534 2.80626,0.64339c0.92777,2.11317 -2.46181,3.83017 -3.48885,4.51664c-1.00457,0.67145 -2.08373,1.23833 -3.20444,1.73846c-0.15718,0.39888 -0.34343,0.79164 -0.56405,1.18194c-0.34035,1.06146 -0.59742,2.11476 -0.59476,3.15279c0.00191,0.7456 0.50481,2.37506 0.78127,3.70996c0.22922,-0.28073 0.57804,-0.45996 0.96873,-0.45996c0.16475,0 0.32206,0.03187 0.46609,0.08979c0.48169,-0.20697 0.99815,-0.00038 0.99815,-0.00038c3.05453,1.23285 5.82324,3.08686 8.35476,5.21628c0.22825,0.192 0.40666,0.43338 0.56733,0.69179c0.79136,0.44612 1.4265,1.00904 1.76852,1.77417c0.00331,0.00741 0.0066,0.01482 0.00986,0.02224c1.10915,0.03844 3.06419,-0.67355 3.8943,-0.16193c3.76938,2.32318 4.67068,8.63014 4.69098,12.61412c0.00236,0.46366 0.02099,3.24269 -0.09515,3.48227c-0.34472,0.71116 -1.11766,1.11767 -1.67649,1.6765c-0.78019,0.01384 -1.59142,0.25979 -2.34059,0.04152c-2.05316,-0.5982 -4.05828,-3.77803 -5.52166,-5.31248c-0.43593,-0.4571 -1.06137,-0.80967 -1.27096,-1.40553c-0.97341,-2.7674 0.53324,-6.28551 0.16696,-9.16791c-0.41129,-0.37653 -0.70242,-0.89365 -1.0204,-1.38484c-0.42698,-0.14588 -0.85802,-0.23046 -0.887,-0.23975c-0.84257,-0.27001 -1.65469,-0.52701 -2.44502,-0.81021c0.48428,1.00444 0.95108,2.03342 1.45834,3.06534c0.68523,1.39394 1.89001,2.98686 0.95205,4.70509c-0.09841,0.18027 -0.21731,0.34127 -0.35255,0.48684c0.54038,3.20556 0.87743,6.50113 1.8404,9.57592c2.13655,-0.1329 4.76325,-0.43045 5.99957,1.6247c0.67102,1.11545 0.49189,4.14491 0.67673,5.45017c0.22857,1.61405 2.08456,5.0804 0.64965,6.60018c-0.55192,0.58456 -1.58219,0.30602 -2.38389,0.36612c-2.27657,0.17066 -4.7149,0.07363 -7,0c-0.86423,-0.02785 -1.83828,0.27972 -2.58982,-0.14791c-2.76276,-1.57203 -1.25747,-5.78204 -2.11033,-8.25261c-0.10305,-0.41221 -0.20963,-0.82367 -0.32049,-1.23398c-0.42331,1.14796 -1.06524,2.2894 -1.2455,3.58473c-0.21321,1.53212 0.49163,2.84205 -0.84997,4.18365c-0.55231,0.55231 -1.41739,0.69859 -2.18366,0.84998c-2.09406,0.41372 -4.39223,-0.29916 -6.5,0c-0.67497,0.0958 -1.36318,0.7567 -1.98742,0.4827c-0.90368,-0.39665 -1.8207,-1.23994 -1.96281,-2.21656c-0.15113,-1.03856 1.72591,-1.95468 2.23594,-2.73089c1.09687,-1.66929 0.68576,-2.18238 2.13017,-3.653c1.34602,-1.37046 2.07631,-0.99995 2.65003,-2.81635c0.04973,-0.51694 -0.24755,-1.08769 -0.65003,-1.41588l-0.5,-0.5c0,0 -0.21182,-0.21182 -0.32437,-0.53177c-0.36574,-0.04882 -0.71756,-0.15939 -1.02263,-0.33807c-1.21722,-0.71292 -1.2931,-2.51123 -2.0421,-3.7066c-1.51054,-2.41073 -2.63576,-4.93295 -3.74427,-7.52329c-0.49372,0.94867 -1.03523,1.91128 -1.48936,2.47457c-0.33905,0.42055 -1.07736,0.39145 -1.39129,0.83108c-0.52021,0.72852 -0.23236,2.18785 0.18594,3.60298c0.13691,-0.54182 0.62762,-0.9428 1.21197,-0.9428c0.69036,0 1.25,0.55965 1.25,1.25c0,0.69035 -0.55964,1.25 -1.25,1.25c-0.31063,0 -0.59481,-0.11331 -0.81343,-0.30085c0.25095,0.75961 0.47676,1.4261 0.54729,1.85062c0.14878,0.8954 -0.44549,1.89148 -0.07901,2.72188c0.43007,0.97449 1.38244,1.73125 1.57901,2.77812c0.65525,3.48974 -0.47065,9.22426 -4.53363,9.93409c-1.94384,0.3396 -2.41866,-0.00588 -4.09552,-0.548c-4.29283,-1.59524 -3.68399,-6.40156 -3.25981,-10.34123c0.25729,-2.38967 0.42631,-3.88856 2.59608,-5.46267c0.55776,-0.40464 1.71014,0.088 1.9957,-0.53913c0.77865,-1.71001 1.42325,-3.45878 2.05813,-5.20658c0.06861,-0.43179 0.197,-0.84376 0.40309,-1.22608c0.02728,-0.05061 0.05883,-0.09734 0.09398,-0.1408c0.86212,-2.35646 1.76567,-4.69226 3.017,-6.90953c-0.17847,-0.63729 -0.27662,-1.22636 -0.21892,-1.6734c0.22871,-1.77164 3.4683,-2.66851 4.05518,-4.1648c0.12489,-0.3184 -0.28192,-0.73512 -0.09515,-1.02165v-0.98393c-1.34769,0.31717 -2.67708,0.42982 -3.90273,0.22456c-0.98444,-0.16486 -2.14982,-0.2432 -2.83253,-0.97137c-1.27896,-1.36413 0.29401,-5.96728 0.83077,-7.2485c2.09372,-4.99762 10.78675,-10.20104 16.15448,-10.27076c0,0 1.24994,0 1.25,1.24991c0.30361,0.22805 0.5,0.59113 0.5,1.00009v1.5c0.07686,0.26132 0.13245,0.5232 0.16942,0.78554c1.10482,-0.44776 2.55743,-1.0195 2.87642,-1.01875zM266.36611,103.38389c0,0 -0.3801,-0.38011 -0.39252,-0.89105c-0.03551,-0.03649 -0.07133,-0.0728 -0.10748,-0.10895l-0.95068,-0.95069c-0.01271,0.04659 -0.02842,0.08867 -0.04739,0.12582c-0.28371,0.55573 -2.96321,1.37771 -3.72275,1.62684c-2.02431,0.66399 -4.09726,0.94456 -5.48727,0.14789c-0.7653,0.69142 -1.91911,1.55059 -2.61148,2.20039c0.88911,0.69088 0.24353,1.65924 0.24353,1.65924c-0.00668,0.00999 -0.01335,0.01998 -0.02002,0.02998c0.26504,-0.0032 0.56444,0.09336 0.86384,0.39276c0.88388,0.88389 0,1.76777 0,1.76777l-0.31569,0.3074c0.08988,0.17271 0.17426,0.34638 0.24916,0.52175c1.6429,3.84687 3.7683,7.58101 5.41354,11.27291c0.31571,0.70844 1.11172,-1.08209 1.653,-1.6376c0.63673,-0.65346 1.20955,-1.39124 1.95895,-1.91166c1.70925,-1.18699 3.70308,-2.15832 5.45968,-3.474c0.66674,-0.40045 1.48036,-0.59393 2.18136,-0.93338c-0.06282,-0.24813 -0.12945,-0.49554 -0.20044,-0.74212c-0.90823,-3.15439 -2.15007,-5.98147 -3.64079,-8.88092zM278.3198,109.13174c0.04652,2.58706 -1.09009,5.63607 -0.41495,7.88991c0.30968,1.03379 2.56705,2.25489 3.31183,3.18587c0.87201,1.09002 1.04456,2.04255 2.55496,2.13764c1.03798,-1.03799 0.01389,-5.36579 -0.24469,-6.58698c-0.48842,-2.30662 -0.79299,-5.08084 -2.83596,-6.64014c-0.35971,-0.27455 -1.37046,-0.11652 -2.37118,0.0137zM247.50739,120.67284c-0.19745,0.5641 -0.42195,1.08252 -0.69407,1.48433c-1.51597,2.23846 -3.06746,0.43862 -3.9141,2.83458c-0.79388,2.24667 -1.58068,9.05752 1.24607,9.8224c4.26644,1.47777 5.33351,-1.63466 5.35471,-5.31414c0.00728,-1.26382 -0.96019,-2.33862 -1.40485,-3.52165c-0.44935,-1.1955 0.11545,-2.116 -0.07901,-3.27812c-0.10098,-0.60346 -0.29721,-1.29384 -0.50876,-2.02739zM261.63389,123.11612c0.85625,0.94691 1.3037,2.30832 1.34997,3.58412c-0.84976,2.47997 -1.63103,2.50405 -3.34997,4.18365c-0.62124,0.60701 -1.5483,2.87047 -1.86983,3.347c-0.08963,0.13285 -0.21364,0.31038 -0.36395,0.49088c0.44608,-0.02922 0.9013,0.0305 1.34989,0.02823c1.08107,-0.00545 4.86266,0.61957 5.61611,-0.13388c0.53704,-0.53704 0.42687,-3.56219 0.68374,-4.4656c0.51255,-1.80271 1.0038,-2.97387 1.76026,-4.12047l-0.17814,-0.08907l0.98789,-1.97578c0.20043,-0.4228 0.63114,-0.7152 1.13015,-0.7152c0.69036,0 1.25,0.55965 1.25,1.25v1.34668c0.37185,1.08388 0.67223,2.19216 0.95015,3.30384c0.55117,1.70319 0.58607,3.06823 0.54985,4.84948c-0.00489,0.24017 -0.2749,1.68924 0.33982,1.89791c1.2767,0.43337 4.58456,-0.14791 5.91018,-0.14791c1.04585,0 2.13687,0.73337 3.11611,0.36612c0.18252,-0.06845 -0.291,-0.27987 -0.35675,-0.46339c-0.21478,-0.59951 -0.31824,-1.23327 -0.47244,-1.85115c-0.17814,-0.71383 -0.41969,-1.41572 -0.52456,-2.14392c-0.21393,-1.48553 0.24289,-3.09984 -0.31987,-4.49119c-0.43406,-1.07315 -3.96827,-0.43774 -4.89888,-0.41698c-0.01436,0.00034 -0.0289,0.00051 -0.04361,0.00051c-0.43412,0 -0.71747,-0.15077 -0.90242,-0.34758c-0.19682,-0.18494 -0.34758,-0.4683 -0.34758,-0.90242c0,-0.08796 0.00619,-0.16975 0.0177,-0.24577c-0.99392,-3.0557 -1.23453,-6.22633 -1.78078,-9.33259c-0.44889,0.18807 -0.89421,0.3788 -1.28943,0.61567c-1.771,1.33013 -3.81171,2.34021 -5.54032,3.526c-0.8693,0.59632 -1.85216,2.11953 -2.81886,3.00723zM261.42813,96.18788c-1.45067,0.90439 -3.15923,1.83591 -4.92813,2.53237v1.75669c0.00246,0.02162 0.00529,0.04282 0.00847,0.06359c0.0079,0.03851 0.01538,0.07701 0.02239,0.1155c0.32967,1.39072 2.47624,0.6155 3.82385,0.15812c0.49908,-0.16939 0.97989,-0.41477 1.5,-0.5c0.25905,-0.04245 0.67561,0.36888 0.77725,0.12684c0.10711,-0.25505 -0.47879,-0.33488 -0.58211,-0.5915c-0.28164,-0.69952 -0.43385,-1.45024 -0.54048,-2.19675c-0.07157,-0.50108 -0.09517,-0.98823 -0.08124,-1.46485z" fill="#000000" stroke-width="0.5"/><text transform="translate(132.75,29) scale(0.5,0.5)" font-size="40" xml:space="preserve" fill="#5f5f5f" fill-rule="nonzero" stroke="none" stroke-width="1" stroke-linecap="butt" stroke-linejoin="miter" stroke-miterlimit="10" stroke-dasharray="" stroke-dashoffset="0" font-family="&quot;HomeVideo-Regular&quot;, Sans Serif" font-weight="normal" text-anchor="start" style="mix-blend-mode: normal"><tspan x="0" dy="0">THEODORES AMAZING PLATFORM</tspan><tspan x="0" dy="46.15px">OF AMAZINGNESS</tspan></text></g></g></svg>