<svg version="1.1" xmlns="http://www.w3.org/2000/svg" xmlns:xlink="http://www.w3.org/1999/xlink" width="164.84144" height="176.79296" viewBox="0,0,164.84144,176.79296"><g transform="translate(-230.37683,-97.83949)"><g data-paper-data="{&quot;isPaintingLayer&quot;:true}" fill-rule="nonzero" stroke-linecap="butt" stroke-linejoin="miter" stroke-miterlimit="10" stroke-dasharray="" stroke-dashoffset="0" style="mix-blend-mode: normal"><path d="M261.41131,202.0408v-42.29705h76.01498v42.29705z" fill="#caff00" stroke="none" stroke-width="0"/><path d="M292.75935,181.11607v-11.57184h10.57426v11.57184z" fill="#2e7f70" stroke="none" stroke-width="0"/><path d="M272.62054,182.3253v-11.57184h10.57426v11.57184z" fill="#2e7f70" stroke="none" stroke-width="0"/><path d="M312.93458,182.33743v-11.57184h10.57426v11.57184z" fill="#2e7f70" stroke="none" stroke-width="0"/><path d="M334.09525,181.55152v-19.15339h10.57426v19.15339z" fill="#2e7f70" stroke="none" stroke-width="0"/><path d="M262.48172,172.18648v-11.57184h10.57426v11.57184z" fill="#2e7f70" stroke="none" stroke-width="0"/><path d="M271.46522,160.17502v-40.17038h83.25998v40.17038z" fill="#2e7f70" stroke="#ffffff" stroke-width="0"/><path d="M274.12111,119.67266v-20.58317h119.84716v20.58317z" fill="#fafafa" stroke="#ffffff" stroke-width="2.5"/><path d="M262.1696,138.26391v-17.59529h21.24714v17.59529z" fill="#fafafa" stroke="#ffffff" stroke-width="2.5"/><path d="M251.54602,160.50701v-20.58317h19.58721v20.58317z" fill="#fafafa" stroke="#ffffff" stroke-width="2.5"/><path d="M241.91841,180.75819v-19.58721h19.9192v19.58721z" fill="#fafafa" stroke="#ffffff" stroke-width="2.5"/><path d="M231.62683,201.00937v-18.92324h82.00069v18.92324z" fill="#fafafa" stroke="#ffffff" stroke-width="2.5"/><path d="M292.38037,220.92857v-17.92728h30.21078v17.92728z" fill="#fafafa" stroke="#ffffff" stroke-width="2.5"/><path d="M282.08879,231.22015v-9.62761h30.87475v9.62761z" fill="#fafafa" stroke="#ffffff" stroke-width="2.5"/><path d="M281.09283,241.51173v-8.29966h23.57105v8.29966z" fill="#fafafa" stroke="#ffffff" stroke-width="2.5"/><path d="M272.79317,252.1353v-9.62761h19.9192v9.62761z" fill="#fafafa" stroke="#ffffff" stroke-width="2.5"/><path d="M271.79721,263.09086v-8.96364h9.9596v8.96364z" fill="#fafafa" stroke="#ffffff" stroke-width="2.5"/><path d="M262.1696,273.38245v-9.29562h9.29562v9.29562z" fill="#fafafa" stroke="#ffffff" stroke-width="2.5"/><path d="M355.78981,130.29623v-10.95556h18.92324v10.95556z" fill="#fafafa" stroke="#ffffff" stroke-width="2.5"/><path d="M345.83021,140.9198v-10.29158h17.92728v10.29158z" fill="#fafafa" stroke="#ffffff" stroke-width="2.5"/><path d="M333.8787,168.47468v-28.21886h19.25522v28.21886z" fill="#fafafa" stroke="#ffffff" stroke-width="2.5"/><path d="M323.58711,170.13462v-18.92324h9.29562v18.92324z" fill="#fafafa" stroke="#ffffff" stroke-width="2.5"/><path d="M353.79789,161.17098v-10.95556h30.87475v10.95556z" fill="#fafafa" stroke="#ffffff" stroke-width="2.5"/><path d="M355.45783,172.12654v-11.95152h19.58721v11.95152z" fill="#fafafa" stroke="#ffffff" stroke-width="2.5"/><path d="M345.49823,180.09422v-14.27542h18.25926v14.27542z" fill="#fafafa" stroke="#ffffff" stroke-width="2.5"/><path d="M335.53863,189.72183v-7.3037h17.59529v7.3037z" fill="#fafafa" stroke="#ffffff" stroke-width="2.5"/><path d="M324.91506,211.63294v-18.92324h9.29562v18.92324z" fill="#fafafa" stroke="#ffffff" stroke-width="2.5"/><path d="M334.87466,201.00937v-12.61549h9.9596v12.61549z" fill="#fafafa" stroke="#ffffff" stroke-width="2.5"/><path d="M282.75935,171.11607v-11.57183h10.57426v11.57183z" fill="#2e7f70" stroke="none" stroke-width="0"/><path d="M303.32147,171.32772v-11.57184h10.57426v11.57184z" fill="#2e7f70" stroke="none" stroke-width="0"/></g></g></svg>